<svg xmlns="http://www.w3.org/2000/svg" viewBox="0 0 512 512" role="img" aria-label="Quiet Space">
  <rect width="512" height="512" fill="#f5f0e6"/>
  <circle cx="256" cy="246" r="164" fill="#d9e1d6"/>
  <path d="M151 252 256 158l105 94v120a24 24 0 0 1-24 24H175a24 24 0 0 1-24-24Z" fill="#fffaf0" stroke="#6f8374" stroke-width="18" stroke-linejoin="round"/>
  <path d="M135 258 256 148l121 110" fill="none" stroke="#6f8374" stroke-width="22" stroke-linecap="round" stroke-linejoin="round"/>
  <path d="M219 396v-88a37 37 0 0 1 74 0v88" fill="#e8cbb7" stroke="#6f8374" stroke-width="16"/>
  <circle cx="277" cy="351" r="6" fill="#6f8374"/>
  <circle cx="357" cy="139" r="39" fill="#fff0a3"/>
  <path d="M356 100a39 39 0 0 0 34 58 39 39 0 1 1-34-58Z" fill="#fff8ce"/>
</svg>
